<svg xmlns="http://www.w3.org/2000/svg" width="97" height="81" viewBox="0 0 97 81">
    <g fill="#FFF" fill-rule="evenodd">
        <path d="M72.44 52.82H23.339v-4.657h16.947a11.384 11.384 0 0 0 7.914 3.186c3.075 0 5.863-1.218 7.911-3.186H72.44v4.657zM55.688 39.935c0 4.095-3.36 7.427-7.488 7.427-4.131 0-7.49-3.332-7.49-7.427 0-4.096 3.359-7.428 7.49-7.428 4.129 0 7.488 3.332 7.488 7.428zM38.548 24.42v6.125h2.858v-7.28a22.348 22.348 0 0 1 6.794-1.06c2.142 0 4.21.318 6.17.882v7.458h2.859v-6.421c7.75 3.432 13.16 11.127 13.16 20.09H58.771c.515-1.285.805-2.684.805-4.151 0-6.234-5.094-11.285-11.377-11.285-6.286 0-11.38 5.051-11.38 11.285 0 1.467.292 2.866.805 4.152H26.01c0-8.72 5.125-16.233 12.54-19.795zm57.85 2.096c0-14.398-11.769-26.07-26.286-26.07A26.305 26.305 0 0 0 48.2 12.132 26.31 26.31 0 0 0 26.285.446C11.768.446 0 12.118 0 26.516c0 6.918 2.736 13.19 7.17 17.856l-.018.01 11.113 11.871s0 .002.002.002l18.56 19.827c6.112 6.53 16.148 6.56 22.303.07L75.362 59.03 89.25 44.382l-.018-.013c4.431-4.666 7.166-10.937 7.166-17.853z"/>
        <path d="M49.35 37.774l.9-.83 2.247 2.075-2.997 2.766-.898-.83 2.096-1.936-1.347-1.245zm-1.7 4.452l-.9.831-2.247-2.074 2.997-2.767.898.83-2.096 1.937 1.347 1.243zM42 40c0 3.309 2.915 6 6.5 6s6.5-2.691 6.5-6c0-3.307-2.915-6-6.5-6S42 36.693 42 40z"/>
    </g>
</svg>
